# xmcd
#
# Track frame offsets:
#	150
#	22372
#	45241
#	65845
#	85083
#	108163
#	128325
#	148398
#	178217
#	215721
#	244539
#	263361
#
# Disc length: 3721 seconds
#
# Revision: 0
# Processed by: cddbd v1.4PL0 Copyright (c) Steve Scherf et al.
# Submitted via: dBpowerAMP V4.0
#
DISCID=a90e870c
DTITLE=Elliot Murphy with Olivier Durand - April, a live album
DYEAR=1999
DGENRE=Blues
TTITLE0=You  Never Know You're In For
TTITLE1=Sicily
TTITLE2=Take your love away
TTITLE3=Hard core
TTITLE4=Drive All Night
TTITLE5=On Elvis Presley's Birthday
TTITLE6=Caught Short In The Long Run
TTITLE7=Diamonds By The Yards
TTITLE8=Party Girls and Broken Poets\Gloria
TTITLE9=Rock Ballad
TTITLE10=Wild Horses
TTITLE11=Been Up These Stairs Before
EXTD=
EXTT0=
EXTT1=
EXTT2=
EXTT3=
EXTT4=
EXTT5=
EXTT6=
EXTT7=
EXTT8=
EXTT9=
EXTT10=
EXTT11=
PLAYORDER=
